<?xml version="1.0" encoding="utf-8"?>
<!-- Generator: Adobe Illustrator 22.0.0, SVG Export Plug-In . SVG Version: 6.00 Build 0)  -->
<svg version="1.1" id="Capa_1" xmlns="http://www.w3.org/2000/svg" xmlns:xlink="http://www.w3.org/1999/xlink" x="0px" y="0px"
	 viewBox="0 0 512 512" style="enable-background:new 0 0 512 512;" xml:space="preserve">
<style type="text/css">
	.st0{fill:#050505;}
</style>
<g>
	<path d="M433.6,292.1L287.9,335c4.6,11.3,7.1,23.6,7.1,36.3v5.3c0,37.4-38.6,62.2-72.6,46.9l-76.3-34.4
		c-7.5-3.4-10.9-12.3-7.5-19.8c3.4-7.6,12.3-10.9,19.8-7.5l76.3,34.4c14.1,6.4,30.3-3.9,30.3-19.6v-5.3c0-25.8-15.6-48.5-38.7-58.9
		l-66-29.7c-25.7-11.6-55.1-11.4-80.6,0.3l-71,32.3C3.4,317.8,0,323.1,0,329v159.6c0,11.3,10.8,18,20.3,14.4l99.9-38L239,506.5
		c27,9.5,56.7,6.6,81.4-8.1L482,403.3c18.5-10.9,29.9-31.1,29.9-52.6C512,310.1,472.9,280.5,433.6,292.1L433.6,292.1z"/>
</g>
<path class="st0" d="M297.2,29.2C312.5,14.9,330,5.1,350.6,1.7c55.1-9.1,102.3,25.2,110.5,71.7c6,34.4-5.8,62.8-33,83.6
	c-42.4,32.3-85.9,63.2-128.9,94.7c-0.7,0.5-1.5,0.8-2.8,1.4c-26.9-19.8-54-39.7-81-59.6c-16.1-11.9-32.3-23.6-48.2-35.7
	c-28.9-22-42-51.1-34.1-86.9c8.2-37.5,33.7-59.6,70.1-68c33-7.6,63.2-0.1,88.8,23.1c0.9,0.8,1.7,1.5,2.7,2.2
	C295.1,28.5,295.7,28.6,297.2,29.2z M193.9,106.9c6.1-0.3,13.3-3.5,14.9-11.3c2.3-11.2,8.7-14.9,19.1-16.2
	c10.1-1.2,16.5-9.4,16.2-18.4c-0.4-9.7-7.5-17-17.9-18.1c-24.3-2.7-50.8,19.1-52.6,43.2C172.7,97.6,181.1,107,193.9,106.9z"/>
</svg>
